<svg width="24" height="24" viewBox="0 0 24 24" fill="none" xmlns="http://www.w3.org/2000/svg">
<path d="M3.94434 7.5H6M19.0554 7.5H11.5" stroke="black" stroke-width="1.5" stroke-linecap="square"/>
<path d="M3.94434 16.5H12M19.0554 16.5H17" stroke="black" stroke-width="1.5" stroke-linecap="square"/>
<path fill-rule="evenodd" clip-rule="evenodd" d="M8.5 10C9.88071 10 11 8.88071 11 7.5C11 6.11929 9.88071 5 8.5 5C7.11929 5 6 6.11929 6 7.5C6 8.88071 7.11929 10 8.5 10Z" stroke="black" stroke-width="1.5" stroke-linecap="square"/>
<path fill-rule="evenodd" clip-rule="evenodd" d="M14.5 19C15.8807 19 17 17.8807 17 16.5C17 15.1193 15.8807 14 14.5 14C13.1193 14 12 15.1193 12 16.5C12 17.8807 13.1193 19 14.5 19Z" stroke="black" stroke-width="1.5" stroke-linecap="square"/>
</svg>
